<svg version="1.1" id="svg2" xml:space="preserve" sodipodi:docname="LOGO G2S AI (1).ai" xmlns:inkscape="http://www.inkscape.org/namespaces/inkscape" xmlns:sodipodi="http://sodipodi.sourceforge.net/DTD/sodipodi-0.dtd" xmlns="http://www.w3.org/2000/svg" xmlns:svg="http://www.w3.org/2000/svg" viewBox="471.28 1128.07 4372.08 1780.58"><defs id="defs6"><clipPath clipPathUnits="userSpaceOnUse" id="clipPath16"><path d="M 0,3061.417 H 3061.417 V 0 H 0 Z" id="path14"/></clipPath><clipPath clipPathUnits="userSpaceOnUse" id="clipPath66"><path d="M 0,3061.417 H 3061.417 V 0 H 0 Z" id="path64"/></clipPath></defs><sodipodi:namedview id="namedview4" pagecolor="#ffffff" bordercolor="#666666" borderopacity="1.0" inkscape:pageshadow="2" inkscape:pageopacity="0.0" inkscape:pagecheckerboard="0"/><g id="g8" inkscape:groupmode="layer" inkscape:label="LOGO G2S AI (1)" transform="matrix(1.3333333,0,0,-1.3333333,0,4081.8933)"><g id="g10"><g id="g12" clip-path="url(#clipPath16)"><g id="g18" transform="translate(2745.4424,1939.1005)"><path d="m 0,0 c 1.12,-1.818 1.77,-3.925 1.832,-6.139 0.127,-4.416 -2.113,-8.568 -5.879,-10.888 l -511.599,-315.079 c -5.82,-3.585 -13.443,-1.77 -17.026,4.047 -3.583,5.818 -1.773,13.442 4.048,17.027 l 493.346,303.839 -411.539,222.255 -410.414,-252.763 13.689,-481.814 424.112,-229.051 410.415,252.764 -4.507,158.706 c -0.195,6.83 5.186,12.528 12.018,12.719 6.833,0.197 12.528,-5.171 12.719,-12.018 l 4.713,-165.847 c 0.128,-4.416 -2.113,-8.567 -5.879,-10.887 l -422.584,-260.258 c -3.767,-2.32 -8.483,-2.452 -12.369,-0.351 l -436.684,235.842 c -3.897,2.104 -6.365,6.109 -6.489,10.537 l -14.098,496.097 c -0.128,4.416 2.113,8.568 5.879,10.887 l 422.584,260.259 c 3.767,2.319 8.483,2.451 12.369,0.35 L -4.657,4.398 C -2.709,3.347 -1.119,1.818 0,0" style="fill:#a3c038;fill-opacity:1;fill-rule:nonzero;stroke:none" id="path20"/></g><g id="g22" transform="translate(2710.7617,1584.8099)"><path d="M 0,0 C -11.613,18.857 -5.741,43.558 13.115,55.171 31.972,66.784 56.673,60.913 68.286,42.056 79.899,23.199 74.027,-1.502 55.171,-13.115 36.314,-24.729 11.613,-18.856 0,0" style="fill:#a3c038;fill-opacity:1;fill-rule:nonzero;stroke:none" id="path24"/></g><g id="g26" transform="translate(2506.627,1792.0297)"><path d="m 0,0 c 2.273,-3.691 2.534,-8.479 0.268,-12.534 -3.331,-5.968 -10.869,-8.103 -16.839,-4.769 L -213.342,92.579 -281.953,50.323 c -5.82,-3.585 -13.443,-1.77 -17.026,4.047 -3.583,5.818 -1.774,13.442 4.047,17.027 l 74.796,46.065 c 3.818,2.351 8.609,2.454 12.525,0.267 L -4.502,4.305 C -2.591,3.239 -1.073,1.743 0,0" style="fill:#a3c038;fill-opacity:1;fill-rule:nonzero;stroke:none" id="path28"/></g><g id="g30" transform="translate(2356.0313,1699.2631)"><path d="m 0,0 c 1.242,-2.017 1.921,-4.409 1.827,-6.946 l -7.992,-213.639 c -0.155,-4.127 -2.36,-7.907 -5.879,-10.074 l -2.119,-1.305 c -5.82,-3.585 -13.441,-1.773 -17.026,4.048 -3.585,5.82 -1.774,13.441 4.047,17.026 l -3.51,-2.162 7.742,207.032 c 0.257,6.829 6.002,12.156 12.832,11.906 C -5.792,5.725 -2.091,3.396 0,0" style="fill:#a3c038;fill-opacity:1;fill-rule:nonzero;stroke:none" id="path32"/></g><g id="g34" transform="translate(2623.7686,1864.1552)"><path d="m 0,0 c 1.107,-1.797 1.763,-3.892 1.825,-6.143 l 10.247,-373.719 c 0.122,-4.414 -2.122,-8.559 -5.882,-10.875 l -256.366,-157.889 c -5.821,-3.585 -13.442,-1.773 -17.027,4.047 -3.585,5.822 -1.773,13.443 4.048,17.027 l 250.289,154.146 -10.048,366.58 c -0.19,6.837 5.199,12.522 12.033,12.709 C -6.306,6.014 -2.239,3.636 0,0" style="fill:#a3c038;fill-opacity:1;fill-rule:nonzero;stroke:none" id="path36"/></g><g id="g38" transform="translate(2162.7158,1818.7303)"><path d="M 0,0 C -11.613,18.857 -5.742,43.558 13.115,55.171 31.972,66.785 56.673,60.913 68.286,42.056 79.899,23.199 74.027,-1.502 55.171,-13.115 36.313,-24.729 11.613,-18.856 0,0" style="fill:#a3c038;fill-opacity:1;fill-rule:nonzero;stroke:none" id="path40"/></g><g id="g42" transform="translate(2184.6777,1593.7386)"><path d="M 0,0 C -11.613,18.856 -5.741,43.558 13.116,55.171 31.973,66.784 56.673,60.912 68.287,42.056 79.9,23.199 74.028,-1.502 55.172,-13.115 36.314,-24.729 11.614,-18.857 0,0" style="fill:#a3c038;fill-opacity:1;fill-rule:nonzero;stroke:none" id="path44"/></g><g id="g46" transform="translate(2291.2715,1450.6742)"><path d="M 0,0 C -11.613,18.856 -5.741,43.558 13.115,55.171 31.973,66.784 56.673,60.912 68.287,42.056 79.9,23.199 74.028,-1.502 55.171,-13.115 36.314,-24.729 11.614,-18.856 0,0" style="fill:#a3c038;fill-opacity:1;fill-rule:nonzero;stroke:none" id="path48"/></g><g id="g50" transform="translate(2332.9609,1305.0394)"><path d="M 0,0 C -11.613,18.856 -5.741,43.558 13.115,55.171 31.973,66.784 56.673,60.912 68.286,42.056 79.899,23.198 74.028,-1.502 55.171,-13.115 36.314,-24.729 11.613,-18.857 0,0" style="fill:#a3c038;fill-opacity:1;fill-rule:nonzero;stroke:none" id="path52"/></g></g></g><text transform="matrix(1,0,0,-1,1456.6484,916.7178)" style="font-variant:normal;font-weight:normal;font-stretch:normal;font-size:134px;font-family:Calibri;-inkscape-font-specification:Calibri;writing-mode:lr-tb;fill:#a3c038;fill-opacity:1;fill-rule:nonzero;stroke:none" id="text58"><tspan x="0 84.554001 129.0956 199.71359 270.0636 340.4136 404.59961 511.66559 575.85162" y="0" sodipodi:role="line" id="tspan54">Groupama </tspan><tspan x="606.216 659.60162 726.33362 783.01562 853.3656 923.71558 994.33362 1025.0197 1095.6376 1158.7516 1189.4376 1256.1696" y="0" sodipodi:role="line" id="tspan56">Technologies</tspan></text><g id="g60"><g id="g62" clip-path="url(#clipPath66)"><g id="g68" transform="translate(1282.2974,1664.4315)"><path d="m 0,0 v -34.372 c -36.729,-269.034 -235.403,-421.232 -477.154,-421.232 -241.749,0 -451.664,221.772 -451.664,461.229 0,248.626 199.359,465.813 447.983,465.813 134.05,0 277.575,-34.914 393.012,-191.983 0,0 -41.633,-17.032 -81.374,-52.987 -62.449,83.265 -157.061,140.715 -289.537,141.93 -206.273,1.893 -363.238,-165.708 -362.385,-359.335 0.935,-212.171 165.575,-355.994 351.03,-363.563 144.311,-5.891 319.817,102.189 357.665,255.474 l -230.149,0.494 V 0 Z" style="fill:#1b7371;fill-opacity:1;fill-rule:nonzero;stroke:none" id="path70"/></g><g id="g72" transform="translate(1429.5444,1009.6614)"><path d="m 0,0 v -98.532 h -557.971 l 538.945,607.844 c 35.518,43.538 76.765,97.389 76.765,154.674 0,90.514 -80.202,164.987 -169.568,164.987 -88.223,0 -158.511,-60.924 -164.24,-148 h -107.699 c 17.186,153.528 114.973,246.532 271.939,246.532 146.654,0 272.683,-108.844 272.683,-258.936 0,-64.16 -24.06,-128.322 -64.16,-177.587 L -348.302,0 Z" style="fill:#a3c038;fill-opacity:1;fill-rule:nonzero;stroke:none" id="path74"/></g><g id="g76" transform="translate(1906.0186,2032.8295)"><path d="m 0,0 c -32.081,53.849 -64.857,81.697 -130.164,81.697 -68.744,0 -146.255,-43.191 -146.255,-118.809 0,-67.598 62.668,-95.547 116.518,-116.171 l 61.869,-24.06 c 113.171,-44.068 270.007,-155.96 285.772,-295.428 24.602,-217.627 -107.867,-365.235 -278.183,-403.083 -136.451,-30.322 -308.462,30.279 -397.405,183.564 l 68.126,73.804 c 64.342,-126.791 181.422,-152.274 244.12,-153.285 117.33,-1.893 249.798,102.189 251.691,264.936 1.891,162.747 -142.041,202.317 -216.514,233.252 l -59.577,25.205 c -98.532,42.393 -174.694,86.442 -174.694,206.745 5.676,128.684 116.211,224.154 246.824,224.154 C -26.494,170.316 30.393,126.083 77.368,42.446 Z" style="fill:#1f6a56;fill-opacity:1;fill-rule:nonzero;stroke:none" id="path78"/></g></g></g></g></svg>